<?xml version="1.0" encoding="utf-8"?>
<!-- Generator: Adobe Illustrator 15.1.0, SVG Export Plug-In . SVG Version: 6.00 Build 0)  -->
<!DOCTYPE svg PUBLIC "-//W3C//DTD SVG 1.1//EN" "http://www.w3.org/Graphics/SVG/1.1/DTD/svg11.dtd">
<svg version="1.1" id="Слой_1" xmlns="http://www.w3.org/2000/svg" xmlns:xlink="http://www.w3.org/1999/xlink" x="0px" y="0px"
	 width="212.6px" height="453.54px" viewBox="0 0 212.6 453.54" enable-background="new 0 0 212.6 453.54" xml:space="preserve">
<g>
	<path fill-rule="evenodd" clip-rule="evenodd" fill="#F3F3F3" d="M185.9-0.001H26.699C11.954-0.001,0,11.97,0,26.735v400.069
		c0,14.768,11.954,26.736,26.698,26.736H185.9c14.746,0,26.699-11.969,26.699-26.736V26.735C212.6,11.97,200.646-0.001,185.9-0.001z
		 M201.24,395.568H12.314V62.888H201.24V395.568z"/>
	<g>
		<g>
			<path fill="#C7C6C6" d="M10.831,62.888c0,39.035,0,78.069,0,117.104c0,60.326,0,120.652,0,180.979c0,11.533,0,23.065,0,34.599
				c0,0.809,0.675,1.483,1.483,1.483c49.707,0,99.413,0,149.119,0c13.27,0,26.538,0,39.807,0c0.809,0,1.483-0.675,1.483-1.483
				c0-39.034,0-78.069,0-117.104c0-60.326,0-120.652,0-180.979c0-11.533,0-23.066,0-34.599c0-0.809-0.675-1.483-1.483-1.483
				c-49.706,0-99.413,0-149.12,0c-13.269,0-26.538,0-39.806,0c-1.913,0-1.913,2.967,0,2.967c49.707,0,99.413,0,149.119,0
				c13.27,0,26.538,0,39.807,0c-0.494-0.495-0.989-0.989-1.483-1.483c0,39.035,0,78.069,0,117.104c0,60.326,0,120.652,0,180.979
				c0,11.533,0,23.065,0,34.599c0.494-0.494,0.989-0.989,1.483-1.483c-49.706,0-99.413,0-149.12,0c-13.269,0-26.538,0-39.806,0
				c0.495,0.494,0.989,0.989,1.483,1.483c0-39.034,0-78.069,0-117.104c0-60.326,0-120.652,0-180.979c0-11.533,0-23.066,0-34.599
				C13.798,60.975,10.831,60.975,10.831,62.888z"/>
		</g>
	</g>
	<g id="Speaker">
		<g>
			<path fill-rule="evenodd" clip-rule="evenodd" fill="#ADADAD" d="M122.121,35.648H91.467c-1.365,0-2.472,1.108-2.472,2.475
				s1.106,2.476,2.472,2.476h30.654c1.365,0,2.473-1.108,2.473-2.476S123.486,35.648,122.121,35.648z"/>
		</g>
	</g>
	<g id="Circle">
		<g>
			<ellipse fill-rule="evenodd" clip-rule="evenodd" fill="#FAFAFA" cx="105.994" cy="424.509" rx="20.694" ry="20.671"/>
		</g>
	</g>
	<g id="Square">
		<g>
			<path fill-rule="evenodd" clip-rule="evenodd" fill="#BBBBBB" d="M110.451,416.402h-8.721c-2.032,0-3.68,1.645-3.68,3.676v8.711
				c0,2.031,1.647,3.676,3.68,3.676h8.721c2.033,0,3.682-1.645,3.682-3.676v-8.711C114.133,418.047,112.484,416.402,110.451,416.402
				z M112.404,427.854c0,1.6-1.297,2.895-2.896,2.895h-6.865c-1.6,0-2.896-1.295-2.896-2.895v-6.855
				c0-1.598,1.297-2.893,2.896-2.893h6.865c1.6,0,2.896,1.295,2.896,2.893V427.854z"/>
		</g>
	</g>
	<g id="Outer_Circle">
		<g>
			<ellipse fill-rule="evenodd" clip-rule="evenodd" fill="#D8D9D8" cx="106.073" cy="20.72" rx="4.383" ry="4.375"/>
		</g>
	</g>
	<g id="Red_Dot">
		<g>
			<circle fill-rule="evenodd" clip-rule="evenodd" fill="#EB5256" cx="106.074" cy="20.723" r="1.946"/>
		</g>
	</g>
</g>
</svg>
