<svg xmlns="http://www.w3.org/2000/svg" viewBox="0 0 354 60" width="354" height="60">
	<style>
		tspan { white-space:pre }
		.shp0 { fill: #ffffff } 
		.shp1 { fill: #f06c64 } 
	</style>
	<g id="Header">
		<path id="SINGOLO*" fill-rule="evenodd" class="shp0" d="M36.36 9.36L33.92 14.13C33.63 14.65 33.31 15.04 32.97 15.29C32.66 15.51 32.26 15.63 31.77 15.63C31.26 15.63 30.7 15.44 30.1 15.06C29.51 14.66 28.81 14.23 27.98 13.75C27.16 13.28 26.18 12.85 25.07 12.48C23.97 12.08 22.67 11.88 21.17 11.88C19.81 11.88 18.62 12.05 17.6 12.4C16.58 12.73 15.72 13.19 15.01 13.79C14.33 14.39 13.82 15.11 13.48 15.96C13.14 16.79 12.97 17.7 12.97 18.7C12.97 19.98 13.31 21.04 13.99 21.89C14.7 22.74 15.62 23.46 16.76 24.06C17.9 24.66 19.2 25.2 20.66 25.68C22.12 26.15 23.61 26.66 25.14 27.21C26.67 27.74 28.16 28.36 29.62 29.09C31.08 29.79 32.38 30.69 33.52 31.79C34.66 32.86 35.57 34.19 36.25 35.76C36.96 37.34 37.31 39.25 37.31 41.5C37.31 43.95 36.9 46.25 36.07 48.4C35.27 50.53 34.08 52.39 32.5 53.99C30.95 55.56 29.04 56.81 26.78 57.74C24.52 58.64 21.93 59.09 19.02 59.09C17.34 59.09 15.69 58.93 14.06 58.6C12.44 58.25 10.87 57.76 9.36 57.14C7.88 56.51 6.49 55.76 5.17 54.89C3.86 54.01 2.7 53.04 1.68 51.96L4.55 47.13C4.8 46.78 5.11 46.49 5.5 46.26C5.89 46.01 6.3 45.89 6.74 45.89C7.35 45.89 8 46.15 8.71 46.68C9.41 47.18 10.25 47.74 11.22 48.36C12.19 48.99 13.32 49.56 14.61 50.09C15.92 50.59 17.49 50.84 19.31 50.84C22.1 50.84 24.27 50.16 25.8 48.81C27.33 47.44 28.09 45.48 28.09 42.93C28.09 41.5 27.74 40.34 27.03 39.44C26.35 38.54 25.44 37.79 24.3 37.19C23.16 36.56 21.86 36.04 20.4 35.61C18.95 35.19 17.46 34.73 15.96 34.23C14.45 33.73 12.97 33.13 11.51 32.43C10.06 31.73 8.76 30.81 7.61 29.69C6.47 28.56 5.55 27.16 4.85 25.49C4.17 23.79 3.83 21.7 3.83 19.23C3.83 17.25 4.2 15.33 4.96 13.45C5.73 11.58 6.85 9.91 8.31 8.46C9.76 7.01 11.56 5.85 13.7 4.98C15.84 4.1 18.29 3.66 21.06 3.66C24.17 3.66 27.03 4.16 29.66 5.16C32.28 6.16 34.52 7.56 36.36 9.36ZM55.67 4.26L55.67 58.49L45.84 58.49L45.84 4.26L55.67 4.26ZM103.22 4.26L111.86 4.26L111.86 58.49L106.83 58.49C106.05 58.49 105.4 58.36 104.86 58.11C104.35 57.84 103.85 57.39 103.37 56.76L75.86 20.61C76 22.26 76.08 23.79 76.08 25.19L76.08 58.49L67.44 58.49L67.44 4.26L72.58 4.26C72.99 4.26 73.34 4.29 73.64 4.34C73.95 4.36 74.22 4.44 74.44 4.56C74.68 4.66 74.91 4.83 75.13 5.05C75.35 5.25 75.59 5.53 75.86 5.88L103.48 42.18C103.4 41.3 103.34 40.44 103.29 39.59C103.25 38.74 103.22 37.95 103.22 37.23L103.22 4.26ZM149.53 31.3L167.02 31.3L167.02 53.24C164.35 55.26 161.49 56.75 158.46 57.7C155.44 58.63 152.21 59.09 148.77 59.09C144.47 59.09 140.57 58.4 137.07 57.03C133.6 55.65 130.62 53.74 128.14 51.29C125.69 48.84 123.79 45.91 122.46 42.51C121.12 39.11 120.46 35.4 120.46 31.38C120.46 27.3 121.1 23.56 122.39 20.16C123.67 16.76 125.5 13.84 127.85 11.39C130.23 8.94 133.11 7.04 136.49 5.69C139.86 4.34 143.65 3.66 147.85 3.66C149.99 3.66 151.98 3.84 153.83 4.19C155.7 4.54 157.42 5.03 159 5.65C160.61 6.25 162.06 6.99 163.38 7.86C164.69 8.74 165.89 9.7 166.98 10.75L164.18 15.33C163.74 16.05 163.17 16.5 162.46 16.68C161.76 16.83 161 16.64 160.17 16.11C159.37 15.64 158.57 15.16 157.76 14.69C156.96 14.21 156.06 13.8 155.07 13.45C154.1 13.1 152.99 12.81 151.75 12.59C150.54 12.36 149.13 12.25 147.53 12.25C144.93 12.25 142.57 12.7 140.46 13.6C138.37 14.5 136.58 15.79 135.1 17.46C133.62 19.14 132.48 21.15 131.68 23.5C130.88 25.85 130.47 28.48 130.47 31.38C130.47 34.48 130.9 37.25 131.75 39.7C132.62 42.13 133.84 44.19 135.39 45.89C136.97 47.56 138.87 48.85 141.08 49.75C143.29 50.63 145.75 51.06 148.47 51.06C150.42 51.06 152.15 50.85 153.68 50.43C155.21 50 156.71 49.43 158.17 48.7L158.17 38.88L151.53 38.88C150.9 38.88 150.4 38.7 150.04 38.35C149.7 37.98 149.53 37.53 149.53 37L149.53 31.3ZM226.74 31.38C226.74 35.35 226.09 39.04 224.81 42.44C223.54 45.81 221.75 48.74 219.41 51.21C217.08 53.69 214.28 55.63 211 57.03C207.72 58.4 204.07 59.09 200.07 59.09C196.08 59.09 192.45 58.4 189.17 57.03C185.89 55.63 183.08 53.69 180.72 51.21C178.39 48.74 176.58 45.81 175.29 42.44C174 39.04 173.36 35.35 173.36 31.38C173.36 27.4 174 23.73 175.29 20.35C176.58 16.95 178.39 14.01 180.72 11.54C183.08 9.06 185.89 7.14 189.17 5.76C192.45 4.36 196.08 3.66 200.07 3.66C202.74 3.66 205.25 3.99 207.61 4.64C209.96 5.26 212.13 6.16 214.09 7.34C216.06 8.49 217.82 9.9 219.38 11.58C220.96 13.23 222.29 15.08 223.38 17.13C224.48 19.18 225.3 21.4 225.86 23.8C226.45 26.2 226.74 28.73 226.74 31.38ZM216.72 31.38C216.72 28.4 216.33 25.74 215.55 23.39C214.77 21.01 213.67 19 212.24 17.35C210.8 15.7 209.05 14.44 206.99 13.56C204.95 12.69 202.64 12.25 200.07 12.25C197.49 12.25 195.17 12.69 193.11 13.56C191.07 14.44 189.32 15.7 187.86 17.35C186.43 19 185.32 21.01 184.54 23.39C183.77 25.74 183.38 28.4 183.38 31.38C183.38 34.35 183.77 37.03 184.54 39.4C185.32 41.75 186.43 43.75 187.86 45.4C189.32 47.03 191.07 48.28 193.11 49.15C195.17 50.03 197.49 50.46 200.07 50.46C202.64 50.46 204.95 50.03 206.99 49.15C209.05 48.28 210.8 47.03 212.24 45.4C213.67 43.75 214.77 41.75 215.55 39.4C216.33 37.03 216.72 34.35 216.72 31.38ZM245.17 50.16L266.23 50.16L266.23 58.49L235.37 58.49L235.37 4.26L245.17 4.26L245.17 50.16ZM321.61 31.38C321.61 35.35 320.97 39.04 319.68 42.44C318.42 45.81 316.62 48.74 314.29 51.21C311.96 53.69 309.15 55.63 305.87 57.03C302.6 58.4 298.95 59.09 294.94 59.09C290.96 59.09 287.33 58.4 284.05 57.03C280.77 55.63 277.95 53.69 275.6 51.21C273.26 48.74 271.45 45.81 270.17 42.44C268.88 39.04 268.24 35.35 268.24 31.38C268.24 27.4 268.88 23.73 270.17 20.35C271.45 16.95 273.26 14.01 275.6 11.54C277.95 9.06 280.77 7.14 284.05 5.76C287.33 4.36 290.96 3.66 294.94 3.66C297.62 3.66 300.13 3.99 302.49 4.64C304.84 5.26 307 6.16 308.97 7.34C310.94 8.49 312.7 9.9 314.25 11.58C315.83 13.23 317.17 15.08 318.26 17.13C319.36 19.18 320.18 21.4 320.74 23.8C321.32 26.2 321.61 28.73 321.61 31.38ZM311.59 31.38C311.59 28.4 311.21 25.74 310.43 23.39C309.65 21.01 308.55 19 307.11 17.35C305.68 15.7 303.93 14.44 301.87 13.56C299.83 12.69 297.52 12.25 294.94 12.25C292.37 12.25 290.05 12.69 287.98 13.56C285.94 14.44 284.2 15.7 282.74 17.35C281.3 19 280.2 21.01 279.42 23.39C278.64 25.74 278.26 28.4 278.26 31.38C278.26 34.35 278.64 37.03 279.42 39.4C280.2 41.75 281.3 43.75 282.74 45.4C284.2 47.03 285.94 48.28 287.98 49.15C290.05 50.03 292.37 50.46 294.94 50.46C297.52 50.46 299.83 50.03 301.87 49.15C303.93 48.28 305.68 47.03 307.11 45.4C308.55 43.75 309.65 41.75 310.43 39.4C311.21 37.03 311.59 34.35 311.59 31.38Z" />
		<path id="SINGOLO*" class="shp1" d="M351.64 9.89L345.84 13.3C345.41 13.58 344.97 13.81 344.53 14.01C344.12 14.19 343.68 14.31 343.22 14.39C344.17 14.54 345.04 14.89 345.84 15.44L351.64 18.93L349.52 22.68L343.73 19.19C343.29 18.91 342.88 18.63 342.49 18.33C342.13 18.03 341.81 17.7 341.54 17.35C341.86 18.18 342.02 19.13 342.02 20.2L342.02 27.1L337.72 27.1L337.72 20.24C337.72 19.74 337.74 19.25 337.79 18.78C337.86 18.3 337.97 17.85 338.12 17.43C337.85 17.78 337.54 18.09 337.17 18.36C336.81 18.64 336.42 18.91 336.01 19.19L330.25 22.64L328.1 18.89L333.89 15.44C334.82 14.89 335.69 14.54 336.52 14.39C335.67 14.24 334.79 13.88 333.89 13.3L328.1 9.81L330.21 6.06L336.01 9.59C336.44 9.86 336.84 10.15 337.21 10.45C337.57 10.73 337.9 11.04 338.19 11.39C337.88 10.56 337.72 9.63 337.72 8.58L337.72 1.64L342.02 1.64L342.02 8.5C342.02 9.03 341.98 9.53 341.91 10C341.86 10.48 341.75 10.93 341.58 11.35C341.87 11 342.2 10.69 342.56 10.41C342.93 10.14 343.32 9.86 343.73 9.59L349.49 6.14L351.64 9.89Z" />
	</g>
</svg>