<svg xmlns="http://www.w3.org/2000/svg" viewBox="0 0 118 20" width="118" height="20">
	<style>
		tspan { white-space:pre }
		.shp0 { fill: #ffffff } 
		.shp1 { fill: #f06c64 } 
	</style>
	<g id="Header">
		<path id="SINGOLO*" fill-rule="evenodd" class="shp0" d="M12.12 3.12L11.31 4.71C11.21 4.88 11.1 5.01 10.99 5.1C10.89 5.17 10.75 5.21 10.59 5.21C10.42 5.21 10.23 5.15 10.03 5.02C9.84 4.89 9.6 4.74 9.33 4.58C9.05 4.43 8.73 4.28 8.36 4.16C7.99 4.03 7.56 3.96 7.06 3.96C6.6 3.96 6.21 4.02 5.87 4.13C5.53 4.24 5.24 4.4 5 4.6C4.78 4.8 4.61 5.04 4.49 5.32C4.38 5.6 4.32 5.9 4.32 6.23C4.32 6.66 4.44 7.01 4.66 7.3C4.9 7.58 5.21 7.82 5.59 8.02C5.97 8.22 6.4 8.4 6.89 8.56C7.37 8.72 7.87 8.89 8.38 9.07C8.89 9.25 9.39 9.45 9.87 9.7C10.36 9.93 10.79 10.23 11.17 10.6C11.55 10.95 11.86 11.4 12.08 11.92C12.32 12.45 12.44 13.08 12.44 13.83C12.44 14.65 12.3 15.42 12.02 16.13C11.76 16.84 11.36 17.46 10.83 18C10.32 18.52 9.68 18.94 8.93 19.25C8.17 19.55 7.31 19.7 6.34 19.7C5.78 19.7 5.23 19.64 4.69 19.53C4.15 19.42 3.62 19.25 3.12 19.05C2.63 18.84 2.16 18.59 1.72 18.3C1.29 18 0.9 17.68 0.56 17.32L1.52 15.71C1.6 15.59 1.7 15.5 1.83 15.42C1.96 15.34 2.1 15.3 2.25 15.3C2.45 15.3 2.67 15.38 2.9 15.56C3.14 15.73 3.42 15.91 3.74 16.12C4.06 16.33 4.44 16.52 4.87 16.7C5.31 16.86 5.83 16.95 6.44 16.95C7.37 16.95 8.09 16.72 8.6 16.27C9.11 15.81 9.36 15.16 9.36 14.31C9.36 13.83 9.25 13.45 9.01 13.15C8.78 12.85 8.48 12.6 8.1 12.4C7.72 12.19 7.29 12.01 6.8 11.87C6.32 11.73 5.82 11.58 5.32 11.41C4.82 11.24 4.32 11.04 3.84 10.81C3.35 10.58 2.92 10.27 2.54 9.9C2.16 9.52 1.85 9.05 1.62 8.5C1.39 7.93 1.28 7.23 1.28 6.41C1.28 5.75 1.4 5.11 1.65 4.48C1.91 3.86 2.28 3.3 2.77 2.82C3.25 2.34 3.85 1.95 4.57 1.66C5.28 1.37 6.1 1.22 7.02 1.22C8.06 1.22 9.01 1.39 9.89 1.72C10.76 2.05 11.51 2.52 12.12 3.12ZM18.56 1.42L18.56 19.5L15.28 19.5L15.28 1.42L18.56 1.42ZM34.41 1.42L37.29 1.42L37.29 19.5L35.61 19.5C35.35 19.5 35.13 19.45 34.95 19.37C34.78 19.28 34.62 19.13 34.46 18.92L25.29 6.87C25.33 7.42 25.36 7.93 25.36 8.4L25.36 19.5L22.48 19.5L22.48 1.42L24.19 1.42C24.33 1.42 24.45 1.43 24.55 1.45C24.65 1.45 24.74 1.48 24.81 1.52C24.89 1.55 24.97 1.61 25.04 1.68C25.12 1.75 25.2 1.84 25.29 1.96L34.49 14.06C34.47 13.77 34.45 13.48 34.43 13.2C34.42 12.91 34.41 12.65 34.41 12.41L34.41 1.42ZM49.84 10.43L55.67 10.43L55.67 17.75C54.78 18.42 53.83 18.92 52.82 19.23C51.81 19.54 50.74 19.7 49.59 19.7C48.16 19.7 46.86 19.47 45.69 19.01C44.53 18.55 43.54 17.91 42.71 17.1C41.9 16.28 41.26 15.3 40.82 14.17C40.37 13.04 40.15 11.8 40.15 10.46C40.15 9.1 40.37 7.85 40.8 6.72C41.22 5.59 41.83 4.61 42.62 3.8C43.41 2.98 44.37 2.35 45.5 1.9C46.62 1.45 47.88 1.22 49.28 1.22C50 1.22 50.66 1.28 51.28 1.4C51.9 1.51 52.47 1.68 53 1.88C53.54 2.08 54.02 2.33 54.46 2.62C54.9 2.91 55.3 3.23 55.66 3.58L54.73 5.11C54.58 5.35 54.39 5.5 54.15 5.56C53.92 5.61 53.67 5.55 53.39 5.37C53.12 5.21 52.86 5.05 52.59 4.9C52.32 4.74 52.02 4.6 51.69 4.48C51.37 4.37 51 4.27 50.58 4.2C50.18 4.12 49.71 4.08 49.18 4.08C48.31 4.08 47.52 4.23 46.82 4.53C46.12 4.83 45.53 5.26 45.03 5.82C44.54 6.38 44.16 7.05 43.89 7.83C43.63 8.62 43.49 9.49 43.49 10.46C43.49 11.49 43.63 12.42 43.92 13.23C44.21 14.04 44.61 14.73 45.13 15.3C45.66 15.85 46.29 16.28 47.03 16.58C47.76 16.88 48.58 17.02 49.49 17.02C50.14 17.02 50.72 16.95 51.23 16.81C51.74 16.67 52.24 16.48 52.72 16.23L52.72 12.96L50.51 12.96C50.3 12.96 50.13 12.9 50.01 12.78C49.9 12.66 49.84 12.51 49.84 12.33L49.84 10.43ZM75.58 10.46C75.58 11.78 75.36 13.01 74.94 14.15C74.51 15.27 73.92 16.25 73.14 17.07C72.36 17.9 71.43 18.54 70.33 19.01C69.24 19.47 68.02 19.7 66.69 19.7C65.36 19.7 64.15 19.47 63.06 19.01C61.96 18.54 61.03 17.9 60.24 17.07C59.46 16.25 58.86 15.27 58.43 14.15C58 13.01 57.79 11.78 57.79 10.46C57.79 9.13 58 7.91 58.43 6.78C58.86 5.65 59.46 4.67 60.24 3.85C61.03 3.02 61.96 2.38 63.06 1.92C64.15 1.45 65.36 1.22 66.69 1.22C67.58 1.22 68.42 1.33 69.2 1.55C69.99 1.75 70.71 2.05 71.36 2.45C72.02 2.83 72.61 3.3 73.13 3.86C73.65 4.41 74.1 5.03 74.46 5.71C74.83 6.39 75.1 7.13 75.29 7.93C75.48 8.73 75.58 9.58 75.58 10.46ZM72.24 10.46C72.24 9.47 72.11 8.58 71.85 7.8C71.59 7 71.22 6.33 70.75 5.78C70.27 5.23 69.68 4.81 69 4.52C68.32 4.23 67.55 4.08 66.69 4.08C65.83 4.08 65.06 4.23 64.37 4.52C63.69 4.81 63.11 5.23 62.62 5.78C62.14 6.33 61.77 7 61.51 7.8C61.26 8.58 61.13 9.47 61.13 10.46C61.13 11.45 61.26 12.34 61.51 13.13C61.77 13.92 62.14 14.58 62.62 15.13C63.11 15.68 63.69 16.09 64.37 16.38C65.06 16.68 65.83 16.82 66.69 16.82C67.55 16.82 68.32 16.68 69 16.38C69.68 16.09 70.27 15.68 70.75 15.13C71.22 14.58 71.59 13.92 71.85 13.13C72.11 12.34 72.24 11.45 72.24 10.46ZM81.72 16.72L88.74 16.72L88.74 19.5L78.46 19.5L78.46 1.42L81.72 1.42L81.72 16.72ZM107.2 10.46C107.2 11.78 106.99 13.01 106.56 14.15C106.14 15.27 105.54 16.25 104.76 17.07C103.99 17.9 103.05 18.54 101.96 19.01C100.87 19.47 99.65 19.7 98.31 19.7C96.99 19.7 95.78 19.47 94.68 19.01C93.59 18.54 92.65 17.9 91.87 17.07C91.09 16.25 90.48 15.27 90.06 14.15C89.63 13.01 89.41 11.78 89.41 10.46C89.41 9.13 89.63 7.91 90.06 6.78C90.48 5.65 91.09 4.67 91.87 3.85C92.65 3.02 93.59 2.38 94.68 1.92C95.78 1.45 96.99 1.22 98.31 1.22C99.21 1.22 100.04 1.33 100.83 1.55C101.61 1.75 102.33 2.05 102.99 2.45C103.65 2.83 104.23 3.3 104.75 3.86C105.28 4.41 105.72 5.03 106.09 5.71C106.45 6.39 106.73 7.13 106.91 7.93C107.11 8.73 107.2 9.58 107.2 10.46ZM103.86 10.46C103.86 9.47 103.74 8.58 103.48 7.8C103.22 7 102.85 6.33 102.37 5.78C101.89 5.23 101.31 4.81 100.62 4.52C99.94 4.23 99.17 4.08 98.31 4.08C97.46 4.08 96.68 4.23 95.99 4.52C95.31 4.81 94.73 5.23 94.25 5.78C93.77 6.33 93.4 7 93.14 7.8C92.88 8.58 92.75 9.47 92.75 10.46C92.75 11.45 92.88 12.34 93.14 13.13C93.4 13.92 93.77 14.58 94.25 15.13C94.73 15.68 95.31 16.09 95.99 16.38C96.68 16.68 97.46 16.82 98.31 16.82C99.17 16.82 99.94 16.68 100.62 16.38C101.31 16.09 101.89 15.68 102.37 15.13C102.85 14.58 103.22 13.92 103.48 13.13C103.74 12.34 103.86 11.45 103.86 10.46Z" />
		<path id="SINGOLO*" class="shp1" d="M117.21 3.3L115.28 4.43C115.14 4.53 114.99 4.6 114.84 4.67C114.71 4.73 114.56 4.77 114.41 4.8C114.72 4.85 115.01 4.96 115.28 5.15L117.21 6.31L116.51 7.56L114.58 6.4C114.43 6.3 114.29 6.21 114.16 6.11C114.04 6.01 113.94 5.9 113.85 5.78C113.95 6.06 114.01 6.38 114.01 6.73L114.01 9.03L112.57 9.03L112.57 6.75C112.57 6.58 112.58 6.42 112.6 6.26C112.62 6.1 112.66 5.95 112.71 5.81C112.62 5.93 112.51 6.03 112.39 6.12C112.27 6.21 112.14 6.3 112 6.4L110.08 7.55L109.37 6.3L111.3 5.15C111.61 4.96 111.9 4.85 112.17 4.8C111.89 4.75 111.6 4.63 111.3 4.43L109.37 3.27L110.07 2.02L112 3.2C112.15 3.29 112.28 3.38 112.4 3.48C112.52 3.58 112.63 3.68 112.73 3.8C112.63 3.52 112.57 3.21 112.57 2.86L112.57 0.55L114.01 0.55L114.01 2.83C114.01 3.01 113.99 3.18 113.97 3.33C113.95 3.49 113.92 3.64 113.86 3.78C113.96 3.67 114.07 3.56 114.19 3.47C114.31 3.38 114.44 3.29 114.58 3.2L116.5 2.05L117.21 3.3Z" />
	</g>
</svg>